# xmcd
#
# Track frame offsets: 
#        150
#        14146
#        41436
#        52746
#        69408
#        86675
#        103624
#        115245
#        135603
#        150979
#        171902
#        190062
#        205413
#
# Disc length: 2929 seconds
#
# Revision: 2
# Processed by: cddbd v1.5.2PL0 Copyright (c) Steve Scherf et al.
# Submitted via: ExactAudioCopy v0.90b4
#
DISCID=a90b6f0d
DTITLE=G.Rag y los Hermanos Patchekos - Hold Fast
DYEAR=2009
DGENRE=Indie
TTITLE0=Traversia caliente
TTITLE1=Gambling Bar Room Blues
TTITLE2=Nervous Breakdown
TTITLE3=Cajun Maid
TTITLE4=Mi barrio
TTITLE5=Rags'n'Bones
TTITLE6=Le massacre du melodica
TTITLE7=Get On Board
TTITLE8=Swing Vergol
TTITLE9=Jockey Full Of Bourbon
TTITLE10=Influence
TTITLE11=J'ai tardé
TTITLE12=Cold Cold Heart
EXTD=
EXTT0=
EXTT1=
EXTT2=
EXTT3=
EXTT4=
EXTT5=
EXTT6=
EXTT7=
EXTT8=
EXTT9=
EXTT10=
EXTT11=
EXTT12=
PLAYORDER=
